<?xml version="1.0" encoding="UTF-8"?>
<svg xmlns="http://www.w3.org/2000/svg" xmlns:xlink="http://www.w3.org/1999/xlink" width="400pt" height="288pt" viewBox="0 0 400 288" version="1.1">
<g id="surface308">
<path style="fill:none;stroke-width:0.4;stroke-linecap:butt;stroke-linejoin:round;stroke:rgb(0%,0%,0%);stroke-opacity:1;stroke-dasharray:4;stroke-miterlimit:10;" d="M 152 816 L 96 760 L 152 688 L 232 704 L 240 784 Z M 152 816 " transform="matrix(1,0,0,-1,-92,820)"/>
<path style="fill:none;stroke-width:1.2;stroke-linecap:butt;stroke-linejoin:round;stroke:rgb(0%,0%,0%);stroke-opacity:1;stroke-miterlimit:10;" d="M 488 776 L 480 672 L 352 704 L 384 800 Z M 488 776 " transform="matrix(1,0,0,-1,-92,820)"/>
<path style="fill:none;stroke-width:0.4;stroke-linecap:butt;stroke-linejoin:round;stroke:rgb(0%,0%,0%);stroke-opacity:1;stroke-miterlimit:10;" d="M 240 648 L 352 536 " transform="matrix(1,0,0,-1,-92,820)"/>
<path style="fill:none;stroke-width:1.2;stroke-linecap:butt;stroke-linejoin:round;stroke:rgb(0%,0%,0%);stroke-opacity:1;stroke-miterlimit:10;" d="M 288 664 L 288 600 L 312 576 L 416 568 Z M 288 664 " transform="matrix(1,0,0,-1,-92,820)"/>
<path style="fill:none;stroke-width:0.4;stroke-linecap:butt;stroke-linejoin:round;stroke:rgb(0%,0%,0%);stroke-opacity:1;stroke-dasharray:4;stroke-miterlimit:10;" d="M 288 664 L 224 536 L 416 568 Z M 288 664 " transform="matrix(1,0,0,-1,-92,820)"/>
<path style="fill:none;stroke-width:1.2;stroke-linecap:butt;stroke-linejoin:round;stroke:rgb(0%,0%,0%);stroke-opacity:1;stroke-miterlimit:10;" d="M 152 816 L 96 760 L 152 688 L 240 784 Z M 152 816 " transform="matrix(1,0,0,-1,-92,820)"/>
<path style=" stroke:none;fill-rule:evenodd;fill:rgb(0%,0%,54.5%);fill-opacity:1;" d="M 63 4 C 63 0 57 0 57 4 C 57 8 63 8 63 4 Z M 63 4 "/>
<path style=" stroke:none;fill-rule:evenodd;fill:rgb(0%,0%,54.5%);fill-opacity:1;" d="M 7 60 C 7 56 1 56 1 60 C 1 64 7 64 7 60 Z M 7 60 "/>
<path style=" stroke:none;fill-rule:evenodd;fill:rgb(0%,0%,54.5%);fill-opacity:1;" d="M 63 132 C 63 128 57 128 57 132 C 57 136 63 136 63 132 Z M 63 132 "/>
<path style=" stroke:none;fill-rule:evenodd;fill:rgb(0%,0%,54.5%);fill-opacity:1;" d="M 143 116 C 143 112 137 112 137 116 C 137 120 143 120 143 116 Z M 143 116 "/>
<path style=" stroke:none;fill-rule:evenodd;fill:rgb(0%,0%,54.5%);fill-opacity:1;" d="M 151 36 C 151 32 145 32 145 36 C 145 40 151 40 151 36 Z M 151 36 "/>
<path style=" stroke:none;fill-rule:evenodd;fill:rgb(0%,39.2%,0%);fill-opacity:1;" d="M 295 20 C 295 16 289 16 289 20 C 289 24 295 24 295 20 Z M 295 20 "/>
<path style=" stroke:none;fill-rule:evenodd;fill:rgb(0%,39.2%,0%);fill-opacity:1;" d="M 263 116 C 263 112 257 112 257 116 C 257 120 263 120 263 116 Z M 263 116 "/>
<path style=" stroke:none;fill-rule:evenodd;fill:rgb(0%,39.2%,0%);fill-opacity:1;" d="M 391 148 C 391 144 385 144 385 148 C 385 152 391 152 391 148 Z M 391 148 "/>
<path style=" stroke:none;fill-rule:evenodd;fill:rgb(0%,39.2%,0%);fill-opacity:1;" d="M 399 44 C 399 40 393 40 393 44 C 393 48 399 48 399 44 Z M 399 44 "/>
<path style=" stroke:none;fill-rule:evenodd;fill:rgb(0%,39.2%,0%);fill-opacity:1;" d="M 375 80 C 375 76 369 76 369 80 C 369 84 375 84 375 80 Z M 375 80 "/>
<path style=" stroke:none;fill-rule:evenodd;fill:rgb(54.5%,0%,54.5%);fill-opacity:1;" d="M 135 284 C 135 280 129 280 129 284 C 129 288 135 288 135 284 Z M 135 284 "/>
<path style=" stroke:none;fill-rule:evenodd;fill:rgb(54.5%,0%,54.5%);fill-opacity:1;" d="M 199 156 C 199 152 193 152 193 156 C 193 160 199 160 199 156 Z M 199 156 "/>
<path style=" stroke:none;fill-rule:evenodd;fill:rgb(54.5%,0%,54.5%);fill-opacity:1;" d="M 327 252 C 327 248 321 248 321 252 C 321 256 327 256 327 252 Z M 327 252 "/>
<path style=" stroke:none;fill-rule:evenodd;fill:rgb(54.5%,0%,54.5%);fill-opacity:1;" d="M 199 220 C 199 216 193 216 193 220 C 193 224 199 224 199 220 Z M 199 220 "/>
<path style=" stroke:none;fill-rule:evenodd;fill:rgb(54.5%,0%,54.5%);fill-opacity:1;" d="M 223 244 C 223 240 217 240 217 244 C 217 248 223 248 223 244 Z M 223 244 "/>
</g>
</svg>
