<?xml version="1.0" encoding="UTF-8"?>
<svg xmlns="http://www.w3.org/2000/svg" xmlns:xlink="http://www.w3.org/1999/xlink" width="264pt" height="264pt" viewBox="0 0 264 264" version="1.1">
<g id="surface959">
<path style=" stroke:none;fill-rule:evenodd;fill:rgb(0%,0%,54.5%);fill-opacity:1;" d="M 7 4 C 7 0 1 0 1 4 C 1 8 7 8 7 4 Z M 7 4 "/>
<path style=" stroke:none;fill-rule:evenodd;fill:rgb(0%,0%,54.5%);fill-opacity:1;" d="M 103 68 C 103 64 97 64 97 68 C 97 72 103 72 103 68 Z M 103 68 "/>
<path style=" stroke:none;fill-rule:evenodd;fill:rgb(0%,0%,54.5%);fill-opacity:1;" d="M 71 164 C 71 160 65 160 65 164 C 65 168 71 168 71 164 Z M 71 164 "/>
<path style=" stroke:none;fill-rule:evenodd;fill:rgb(0%,0%,54.5%);fill-opacity:1;" d="M 199 100 C 199 96 193 96 193 100 C 193 104 199 104 199 100 Z M 199 100 "/>
<path style=" stroke:none;fill-rule:evenodd;fill:rgb(0%,0%,54.5%);fill-opacity:1;" d="M 167 196 C 167 192 161 192 161 196 C 161 200 167 200 167 196 Z M 167 196 "/>
<path style=" stroke:none;fill-rule:evenodd;fill:rgb(0%,0%,54.5%);fill-opacity:1;" d="M 263 4 C 263 0 257 0 257 4 C 257 8 263 8 263 4 Z M 263 4 "/>
<path style=" stroke:none;fill-rule:evenodd;fill:rgb(0%,0%,54.5%);fill-opacity:1;" d="M 263 260 C 263 256 257 256 257 260 C 257 264 263 264 263 260 Z M 263 260 "/>
<path style=" stroke:none;fill-rule:evenodd;fill:rgb(0%,0%,54.5%);fill-opacity:1;" d="M 7 260 C 7 256 1 256 1 260 C 1 264 7 264 7 260 Z M 7 260 "/>
</g>
</svg>
