<?xml version="1.0" encoding="UTF-8" standalone="no"?>
<svg
   inkscape:export-ydpi="118.15384"
   inkscape:export-xdpi="118.15384"
   inkscape:export-filename="/Users/satvik/Desktop/chess-club.png"
   width="308.82193"
   height="298.34009"
   viewBox="0 0 81.709128 78.935818"
   version="1.1"
   id="svg8"
   inkscape:version="1.1 (c4e8f9ed74, 2021-05-24)"
   sodipodi:docname="logo_flat.svg"
   xmlns:inkscape="http://www.inkscape.org/namespaces/inkscape"
   xmlns:sodipodi="http://sodipodi.sourceforge.net/DTD/sodipodi-0.dtd"
   xmlns:xlink="http://www.w3.org/1999/xlink"
   xmlns="http://www.w3.org/2000/svg"
   xmlns:svg="http://www.w3.org/2000/svg"
   xmlns:rdf="http://www.w3.org/1999/02/22-rdf-syntax-ns#"
   xmlns:cc="http://creativecommons.org/ns#"
   xmlns:dc="http://purl.org/dc/elements/1.1/">
  <defs
     id="defs2">
    <linearGradient
       id="linearGradient2469"
       inkscape:collect="always">
      <stop
         id="stop2465"
         offset="0"
         style="stop-color:#0000ff;stop-opacity:1;" />
      <stop
         id="stop2467"
         offset="1"
         style="stop-color:#000000;stop-opacity:0.5" />
    </linearGradient>
    <linearGradient
       gradientUnits="userSpaceOnUse"
       y2="121.64484"
       x2="134.71071"
       y1="137.66458"
       x1="114.41579"
       id="linearGradient2471"
       xlink:href="#linearGradient2469"
       inkscape:collect="always" />
  </defs>
  <sodipodi:namedview
     fit-margin-bottom="0"
     fit-margin-right="0"
     fit-margin-left="0"
     fit-margin-top="0"
     units="px"
     inkscape:snap-global="true"
     id="base"
     pagecolor="#ffffff"
     bordercolor="#666666"
     borderopacity="1.0"
     inkscape:pageopacity="0"
     inkscape:pageshadow="2"
     inkscape:zoom="0.59828408"
     inkscape:cx="-3.3428936"
     inkscape:cy="137.05864"
     inkscape:document-units="mm"
     inkscape:current-layer="g40"
     inkscape:document-rotation="0"
     showgrid="false"
     inkscape:object-nodes="false"
     showguides="false"
     inkscape:snap-grids="true"
     inkscape:window-width="947"
     inkscape:window-height="527"
     inkscape:window-x="6"
     inkscape:window-y="543"
     inkscape:window-maximized="1"
     inkscape:pagecheckerboard="true" />
  <metadata
     id="metadata5">
    <rdf:RDF>
      <cc:Work
         rdf:about="">
        <dc:format>image/svg+xml</dc:format>
        <dc:type
           rdf:resource="http://purl.org/dc/dcmitype/StillImage" />
      </cc:Work>
    </rdf:RDF>
  </metadata>
  <g
     transform="translate(-74.80008,-101.29042)"
     inkscape:groupmode="layer"
     id="layer2"
     inkscape:label="IISERK"
     style="display:inline;opacity:1">
    <g
       transform="translate(0,3.8671279)"
       id="g56">
      <g
         transform="translate(3.1619958)"
         id="g40">
        <g
           id="g846">
          <path
             id="path127"
             style="fill:#7f7f7f;fill-opacity:0.499472;stroke:none;stroke-width:0.999999px;stroke-linecap:butt;stroke-linejoin:miter;stroke-opacity:1"
             d="m 123.25,181.75391 c -2.22612,-0.007 -4.45146,0.0565 -6.66797,0.17968 -8.784,0.48824 -25.873046,5.19532 -25.873046,5.19532 v 7.61132 5.15625 129.08204 h 79.931636 c 7.61267,-3.38339 15.22718,-6.767 22.83985,-10.1504 H 99.589844 V 193.98047 c -0.154292,0.0132 -0.308599,0.0258 -0.462891,0.0391 0.166876,-0.046 0.333125,-0.0823 0.5,-0.0977 7.016797,-1.84505 14.338647,-2.41131 21.550777,-2.11915 6.89785,0.27931 13.88927,0.30856 20.62305,2.08399 11.36917,2.99762 32.31836,13.66797 32.31836,13.66797 l 0.94141,0.0273 c 3.06291,-2.07189 6.22255,-4.00549 9.46093,-5.8125 -3.27064,-1.58509 -6.8618,-3.31405 -8.86914,-4.33203 -6.04715,-3.06671 -9.38341,-4.81837 -14.25586,-6.91797 -5.94153,-2.56029 -12.01086,-4.71096 -18.27539,-6.35937 -6.50403,-1.71133 -13.19274,-2.38389 -19.87109,-2.40625 z"
             transform="matrix(0.26458333,0,0,0.26458333,47.637999,89.266203)" />
          <path
             id="path146"
             style="fill:#7f7f7f;fill-opacity:0.499472;stroke:none;stroke-width:0.999999px;stroke-linecap:butt;stroke-linejoin:miter;stroke-opacity:1"
             d="m 239.22461,202.81445 c -6.95519,3.60667 -13.96837,6.83611 -21.75781,10.58594 -1.96397,0.94545 -3.76822,1.79423 -5.75782,2.76953 13.23375,6.59687 26.24627,13.61774 38.36329,23.06641 9.63912,7.36819 17.73919,15.76068 19.73437,26.97265 0.40422,-1.53574 0.75081,-3.08593 1.05469,-4.64453 2.39882,-14.09435 0.70084,-30.07977 -9.10938,-41.17968 -6.29712,-7.29976 -14.11409,-12.9403 -22.52734,-17.57032 z"
             transform="matrix(0.26458333,0,0,0.26458333,47.637999,89.266203)" />
          <path
             id="path1615"
             style="fill:#7f7f7f;fill-opacity:0.499472;stroke:none;stroke-width:0.999999px;stroke-linecap:butt;stroke-linejoin:miter;stroke-opacity:1"
             d="m 158.51596,149.9964 c -1.43278,2.73704 -2.60912,5.64471 -3.41658,8.66707 -0.70724,2.64722 -1.76946,7.05417 -2.20485,9.42637 0.004,0.0898 0.006,0.1797 0.01,0.26954 -0.33815,7.91238 4.36343,14.66503 9.47656,20.23046 6.26722,5.7495 14.10522,9.35101 21.44336,13.58008 3.60698,-2.03809 7.29298,-3.94674 11.0293,-5.73242 4.99465,-2.38706 10.01358,-4.61655 15.03906,-6.83984 -15.65476,-6.74199 -30.91515,-14.54074 -42.45899,-27.35743 -4.51381,-5.01151 -5.98318,-6.94407 -8.91786,-12.24383 z"
             transform="matrix(0.26458333,0,0,0.26458333,47.637999,89.266203)"
             sodipodi:nodetypes="csccccscsc" />
          <path
             id="path247"
             style="fill:#7f7f7f;fill-opacity:0.499472;stroke:none;stroke-width:0.999999px;stroke-linecap:butt;stroke-linejoin:miter;stroke-opacity:1"
             d="m 240.01562,96.945312 c -8.26109,4.162018 -16.63837,7.817878 -26.9375,13.013668 -0.75019,0.37847 -1.5028,0.76559 -2.2539,1.14844 4.87562,1.36087 9.64656,3.07261 14.22461,5.27539 9.61308,4.54228 19.08813,9.68121 27.28906,16.5 5.26324,5.10735 10.25412,10.28229 13.50977,16.98242 3.45161,-6.63254 5.09597,-12.13706 5.24218,-12.63281 -0.15267,-2.55663 -0.37826,-5.10813 -0.70117,-7.65234 -2.4119,-8.60062 -4.43313,-11.72655 -8.26758,-16.6543 -6.32463,-6.61072 -14.0255,-11.74142 -22.10547,-15.980468 z m 31.19922,42.794918 c 0.0293,2.08255 0.0747,6.21647 0.0547,13.20118 0.10477,-4.40546 0.12779,-8.81063 -0.0547,-13.20118 z"
             transform="matrix(0.26458333,0,0,0.26458333,47.637999,89.266203)" />
          <path
             sodipodi:nodetypes="cccsssccssscc"
             inkscape:connector-curvature="0"
             d="m 88.085098,134.12765 -0.0032,-2.44381 -0.0095,-7.28448 c 0.223539,-2.00565 1.264719,-3.76957 2.647007,-5.20799 2.58972,-2.69487 5.82458,-4.61483 9.178609,-6.21781 5.339596,-2.55192 10.897186,-4.42652 15.620726,-8.20875 3.12184,-2.49972 4.5219,-7.341515 4.5219,-7.341515 0,0 -0.008,6.109085 -0.0281,9.162175 -0.65856,3.11558 -3.32714,5.19565 -5.88508,6.70769 -3.27387,1.93524 -6.15739,3.07079 -10.11252,5.06611 -3.55365,1.79278 -7.156035,3.76864 -10.431335,6.02452 -2.34129,1.61258 -4.140346,3.98304 -4.892365,6.79789 -0.248784,1.03448 -0.267567,1.00372 -0.606176,2.94597 z"
             style="display:inline;fill:#007fff;fill-opacity:0.746131;stroke:none;stroke-width:0.264583px;stroke-linecap:butt;stroke-linejoin:miter;stroke-opacity:1"
             id="path137-2" />
          <path
             id="path143"
             style="fill:#7f7f7f;fill-opacity:0.499472;stroke:none;stroke-width:0.999999px;stroke-linecap:butt;stroke-linejoin:miter;stroke-opacity:1"
             d="m 150.13477,243.5957 c -0.32322,10.9657 -0.15838,31.56131 -0.26368,32.68555 l 0.0723,0.2207 z m -0.19141,32.90625 c 1.61633,10.94586 9.72611,19.48293 18.06445,26.08985 7.81789,6.395 16.75131,11.21152 25.47071,16.23632 9.71789,-4.17377 19.43641,-8.34771 29.15429,-12.52148 -9.17435,-4.4555 -18.52101,-8.59387 -27.4707,-13.48828 -10.75157,-6.71894 -22.34016,-12.33829 -31.70899,-21.0332 -4.71542,-4.8606 -7.34485,-8.82785 -8.98828,-12.66602 -0.90005,2.0119 -1.65558,4.09622 -2.23046,6.24805 -0.98201,3.6757 -2.29102,11.13476 -2.29102,11.13476 z"
             transform="matrix(0.26458333,0,0,0.26458333,47.637999,89.266203)" />
          <path
             transform="matrix(0.26458333,0,0,0.26458333,50.799995,93.133331)"
             inkscape:connector-curvature="0"
             d="m 298.44531,142.7207 c -0.80643,0.0224 -1.61308,0.0757 -2.41992,0.16211 -5.02193,0.53813 -9.90333,2.52674 -13.94531,5.83594 -8.88064,7.27068 -12.18829,18.8562 -13.23242,29.76758 -1.34291,14.03357 -0.40222,28.18253 -0.0606,42.23047 0.28312,11.64536 -0.21298,23.41858 -4.27344,34.5957 -2.64363,7.27703 -6.91447,13.54974 -12.22656,18.9082 -5.08653,5.13094 -10.29859,10.3629 -16.63867,13.94336 -10.77328,6.08406 -22.25655,10.88566 -33.54297,15.96289 -0.007,0.003 -0.013,0.005 -0.0195,0.008 -0.13672,-0.003 -0.27344,-0.005 -0.41016,-0.008 -9.00567,3.35929 -18.00995,6.71885 -27.01562,10.07813 46.10662,0.0831 92.23584,0.4075 138.32812,0.33984 8.15516,-1.13132 12.92724,-2.38079 18.56641,-5.55469 4.43951,-2.49872 7.86764,-6.25291 10.91601,-10.42578 8.36939,-11.45665 13.27284,-24.82356 19.36914,-37.49023 3.7149,-7.7187 7.91257,-16.505 14.67774,-22.0332 3.22613,-2.63626 6.17927,-4.63244 11.0625,-4.81446 -3.28785,-5.58013 -7.94258,-11.11433 -14.74414,-12.11718 -3.22617,-0.4757 -6.80744,-0.73731 -9.90235,0.10156 -3.44326,0.93328 -6.32041,3.02648 -8.56836,5.95312 -3.10423,4.04149 -5.5642,8.40466 -7.52929,13.1211 -5.11745,12.28252 -8.95304,25.08013 -15.22071,36.89648 -3.47644,6.55408 -8.12219,12.41253 -13.14257,17.78906 -3.94103,3.69011 -8.41247,7.7431 -13.75782,8.74414 -3.99982,0.74907 -8.02917,1.06656 -12.07226,1.16407 1.70167,-1.45338 3.42007,-2.88583 5.20117,-4.24024 7.89555,-6.00404 15.57147,-12.59235 20.78125,-21.17187 5.06479,-8.34078 9.10545,-17.2341 12.48242,-26.375 5.12251,-13.86569 7.94126,-28.63578 15.41992,-41.56055 3.51855,-6.08084 8.52898,-11.55411 14.99024,-14.42383 1.89717,-0.84261 5.18554,-1.76562 5.18554,-1.76562 0,0 -9.79829,-10.05163 -16.22265,-12.07032 -4.46438,-1.40281 -9.47378,-1.26812 -14.06836,-0.53515 -4.62943,0.73852 -8.36318,3.84604 -11.58399,7.05664 -4.86965,4.8542 -7.50716,11.6059 -9.27734,18.16992 -3.72896,13.82733 -5.52721,28.16998 -9.58594,41.91797 -2.0098,6.80776 -5.68786,13.07876 -8.95507,19.39844 -3.19427,6.1785 -7.05459,12.12374 -11.82813,17.20312 -3.90168,4.15166 -8.47102,7.67713 -13.26172,10.85352 -4.65707,3.08776 -9.91754,4.7051 -14.99609,6.81836 -4.7727,-0.0888 -9.54567,-0.17683 -14.31836,-0.26563 6.00068,-2.53128 12.19213,-4.69916 18.58984,-9.13476 5.08097,-3.52271 10.03108,-6.87101 14.04883,-11.40039 4.93826,-5.56714 8.64061,-10.70121 11.95703,-17.40821 3.02695,-6.12151 5.42842,-13.25988 7.29297,-20.00195 2.02526,-7.32325 3.29625,-16.65599 3.97656,-24.33984 0.69479,-7.8474 1.46517,-16.47711 2.78907,-24.10938 1.42862,-8.23604 3.96916,-14.63365 7.57812,-22.19531 3.65684,-7.66194 8.21095,-12.65242 15.68164,-16.09961 2.73037,-1.25987 5.61914,-1.79297 5.61914,-1.79297 -0.76445,-0.99526 -1.50074,-2.02429 -2.60156,-2.98633 -4.47874,-3.91408 -8.10431,-6.6559 -12.68555,-8.92187 -5.15455,-2.54957 -10.76123,-3.93425 -16.40625,-3.77735 z"
             style="fill:#7f7f7f;fill-opacity:0.499472;stroke:none;stroke-width:0.999999px;stroke-linecap:butt;stroke-linejoin:miter;stroke-opacity:1"
             id="path254" />
          <path
             id="path926"
             style="fill:#007fff;fill-opacity:0.746131;stroke:none;stroke-width:0.999999px;stroke-linecap:butt;stroke-linejoin:miter;stroke-opacity:1"
             d="m 271.19336,136.92383 c 0,0 -5.5017,19.04052 -17.30078,28.48828 -12.54383,10.04408 -26.64227,16.56759 -40.91797,22.90039 l -0.0371,-0.0684 c -6.04522,2.67361 -12.07992,5.32388 -18.08398,8.19336 -12.67668,6.05851 -24.90156,13.31466 -34.68946,23.5 -5.2244,5.43655 -9.16099,12.10318 -10.00586,19.68359 l -0.21484,36.88086 c 0,0 1.30901,-7.45906 2.29102,-11.13476 2.84226,-10.63881 9.90491,-19.7099 18.7539,-25.80469 10.84364,-7.46861 22.63577,-14.12419 34.42188,-20.21484 l 0.0488,0.0898 c 1.65795,-0.85664 3.30007,-1.80959 4.95508,-2.64453 2.62565,-1.32461 4.64705,-2.23449 7.05274,-3.39258 11.29051,-5.43524 20.96767,-9.72434 31.16797,-15.75391 9.6678,-5.71479 19.75314,-13.57809 22.24218,-25.35351 0.68243,-13.20703 0.31641,-35.36914 0.31641,-35.36914 z"
             transform="matrix(0.26458333,0,0,0.26458333,47.637999,89.266203)" />
          <circle
             style="fill:#000000;fill-opacity:0.9;fill-rule:evenodd;stroke:none;stroke-width:0.264583;stroke-opacity:1"
             id="path264"
             cx="104.02816"
             cy="157.82906"
             r="7.4731846" />
        </g>
      </g>
    </g>
  </g>
</svg>
